<?xml version="1.0" encoding="UTF-8" standalone="no"?>
<!DOCTYPE svg PUBLIC "-//W3C//DTD SVG 1.1//EN"
 "http://www.w3.org/Graphics/SVG/1.1/DTD/svg11.dtd">
<!-- Generated by graphviz version 13.1.2 (20250808.2320)
 -->
<!-- Pages: 1 -->
<svg width="697pt" height="290pt"
 viewBox="0.00 0.00 697.00 290.00" xmlns="http://www.w3.org/2000/svg" xmlns:xlink="http://www.w3.org/1999/xlink">
<g id="graph0" class="graph" transform="scale(0.694444 0.694444) rotate(0) translate(4 413.5)">
<polygon fill="white" stroke="none" points="-4,4 -4,-413.5 1000.37,-413.5 1000.37,4 -4,4"/>
<!-- Portugal -->
<g id="node1" class="node">
<title>Portugal</title>
<ellipse fill="lightblue" stroke="lightblue" cx="133.56" cy="-303" rx="42.14" ry="18"/>
<text xml:space="preserve" text-anchor="middle" x="133.56" y="-297.95" font-family="Times,serif" font-size="14.00">Portugal</text>
</g>
<!-- Country -->
<g id="node2" class="node">
<title>Country</title>
<polygon fill="none" stroke="black" points="607.68,-213 547.43,-213 547.43,-177 607.68,-177 607.68,-213"/>
<text xml:space="preserve" text-anchor="middle" x="577.56" y="-189.95" font-family="Times,serif" font-size="14.00">Country</text>
</g>
<!-- Portugal&#45;&gt;Country -->
<g id="edge1" class="edge">
<title>Portugal&#45;&gt;Country</title>
<path fill="none" stroke="black" stroke-dasharray="1,5" d="M166.08,-291.23C195.71,-281.38 235.08,-268.16 236.56,-267 251.42,-255.29 243.04,-240.68 259.31,-231 311.22,-200.11 471.43,-225.4 530.56,-213 532.42,-212.61 534.32,-212.16 536.22,-211.66"/>
<polygon fill="black" stroke="black" points="537.04,-215.07 545.62,-208.85 535.04,-208.36 537.04,-215.07"/>
<text xml:space="preserve" text-anchor="middle" x="270.93" y="-243.95" font-family="Times,serif" font-size="14.00">type</text>
</g>
<!-- Lisbon -->
<g id="node9" class="node">
<title>Lisbon</title>
<ellipse fill="lightblue" stroke="lightblue" cx="313.56" cy="-195" rx="36.51" ry="18"/>
<text xml:space="preserve" text-anchor="middle" x="313.56" y="-189.95" font-family="Times,serif" font-size="14.00">Lisbon</text>
</g>
<!-- Portugal&#45;&gt;Lisbon -->
<g id="edge6" class="edge">
<title>Portugal&#45;&gt;Lisbon</title>
<path fill="none" stroke="black" d="M144.6,-285.29C148.4,-279.51 152.68,-272.98 156.56,-267 166.88,-251.07 164.2,-242.17 179.56,-231 204.65,-212.75 238.5,-204 265.9,-199.82"/>
<polygon fill="black" stroke="black" points="266.26,-203.3 275.7,-198.49 265.33,-196.36 266.26,-203.3"/>
<text xml:space="preserve" text-anchor="middle" x="208.06" y="-243.95" font-family="Times,serif" font-size="14.00">hasCapital</text>
</g>
<!-- &quot;Portugal&quot; -->
<g id="node20" class="node">
<title>&quot;Portugal&quot;</title>
<text xml:space="preserve" text-anchor="middle" x="108.56" y="-189.95" font-family="Times,serif" font-size="14.00">&quot;Portugal&quot;</text>
</g>
<!-- Portugal&#45;&gt;&quot;Portugal&quot; -->
<g id="edge24" class="edge">
<title>Portugal&#45;&gt;&quot;Portugal&quot;</title>
<path fill="none" stroke="black" d="M117.02,-285.98C112.4,-280.45 107.98,-273.9 105.56,-267 100.8,-253.45 100.99,-237.55 102.61,-224.23"/>
<polygon fill="black" stroke="black" points="106.07,-224.79 104.16,-214.37 99.15,-223.7 106.07,-224.79"/>
<text xml:space="preserve" text-anchor="middle" x="131.06" y="-243.95" font-family="Times,serif" font-size="14.00">hasName</text>
</g>
<!-- Spain -->
<g id="node3" class="node">
<title>Spain</title>
<ellipse fill="lightblue" stroke="lightblue" cx="181.56" cy="-391.5" rx="31.9" ry="18"/>
<text xml:space="preserve" text-anchor="middle" x="181.56" y="-386.45" font-family="Times,serif" font-size="14.00">Spain</text>
</g>
<!-- Spain&#45;&gt;Portugal -->
<g id="edge2" class="edge">
<title>Spain&#45;&gt;Portugal</title>
<path fill="none" stroke="black" d="M158.81,-378.42C150.32,-372.67 141.53,-364.96 136.56,-355.5 132.9,-348.55 131.4,-340.32 131,-332.51"/>
<polygon fill="black" stroke="black" points="134.5,-332.73 131.1,-322.69 127.5,-332.66 134.5,-332.73"/>
<text xml:space="preserve" text-anchor="middle" x="166.56" y="-342.2" font-family="Times,serif" font-size="14.00">neighbours</text>
</g>
<!-- Spain&#45;&gt;Country -->
<g id="edge9" class="edge">
<title>Spain&#45;&gt;Country</title>
<path fill="none" stroke="black" stroke-dasharray="1,5" d="M210.62,-383.38C227.46,-378.04 248.13,-369.22 262.56,-355.5 287.87,-331.43 275.65,-312.41 297.31,-285 320.64,-255.46 327.82,-245.5 362.56,-231 433.42,-201.42 462.55,-231.9 536.52,-214.3"/>
<polygon fill="black" stroke="black" points="537.01,-217.79 545.8,-211.87 535.24,-211.02 537.01,-217.79"/>
<text xml:space="preserve" text-anchor="middle" x="308.93" y="-297.95" font-family="Times,serif" font-size="14.00">type</text>
</g>
<!-- Madrid -->
<g id="node7" class="node">
<title>Madrid</title>
<ellipse fill="lightblue" stroke="lightblue" cx="38.56" cy="-249" rx="38.56" ry="18"/>
<text xml:space="preserve" text-anchor="middle" x="38.56" y="-243.95" font-family="Times,serif" font-size="14.00">Madrid</text>
</g>
<!-- Spain&#45;&gt;Madrid -->
<g id="edge11" class="edge">
<title>Spain&#45;&gt;Madrid</title>
<path fill="none" stroke="black" d="M149.68,-388.35C124.94,-385.02 91.44,-376.62 70.56,-355.5 50.38,-335.11 42.86,-302.43 40.09,-278.84"/>
<polygon fill="black" stroke="black" points="43.59,-278.59 39.18,-268.96 36.62,-279.24 43.59,-278.59"/>
<text xml:space="preserve" text-anchor="middle" x="99.06" y="-342.2" font-family="Times,serif" font-size="14.00">hasCapital</text>
</g>
<!-- &quot;Spain&quot; -->
<g id="node18" class="node">
<title>&quot;Spain&quot;</title>
<text xml:space="preserve" text-anchor="middle" x="223.56" y="-297.95" font-family="Times,serif" font-size="14.00">&quot;Spain&quot;</text>
</g>
<!-- Spain&#45;&gt;&quot;Spain&quot; -->
<g id="edge19" class="edge">
<title>Spain&#45;&gt;&quot;Spain&quot;</title>
<path fill="none" stroke="black" d="M190.91,-373.9C194.07,-368.13 197.56,-361.58 200.56,-355.5 204.39,-347.74 208.31,-339.2 211.81,-331.35"/>
<polygon fill="black" stroke="black" points="215,-332.8 215.81,-322.24 208.59,-329.99 215,-332.8"/>
<text xml:space="preserve" text-anchor="middle" x="233.36" y="-342.2" font-family="Times,serif" font-size="14.00">hasName</text>
</g>
<!-- Netherlands -->
<g id="node4" class="node">
<title>Netherlands</title>
<ellipse fill="lightblue" stroke="lightblue" cx="586.56" cy="-391.5" rx="55.45" ry="18"/>
<text xml:space="preserve" text-anchor="middle" x="586.56" y="-386.45" font-family="Times,serif" font-size="14.00">Netherlands</text>
</g>
<!-- Netherlands&#45;&gt;Country -->
<g id="edge14" class="edge">
<title>Netherlands&#45;&gt;Country</title>
<path fill="none" stroke="black" stroke-dasharray="1,5" d="M600.42,-373.7C604.13,-368.23 607.64,-361.91 609.56,-355.5 611.66,-348.47 610.1,-346.31 609.56,-339 605.99,-290.61 607.34,-277.53 593.56,-231 592.87,-228.7 592.07,-226.35 591.19,-224.02"/>
<polygon fill="black" stroke="black" points="594.41,-222.66 587.28,-214.83 587.97,-225.4 594.41,-222.66"/>
<text xml:space="preserve" text-anchor="middle" x="619.88" y="-297.95" font-family="Times,serif" font-size="14.00">type</text>
</g>
<!-- Belgium -->
<g id="node5" class="node">
<title>Belgium</title>
<ellipse fill="lightblue" stroke="lightblue" cx="542.56" cy="-303" rx="43.16" ry="18"/>
<text xml:space="preserve" text-anchor="middle" x="542.56" y="-297.95" font-family="Times,serif" font-size="14.00">Belgium</text>
</g>
<!-- Netherlands&#45;&gt;Belgium -->
<g id="edge3" class="edge">
<title>Netherlands&#45;&gt;Belgium</title>
<path fill="none" stroke="black" d="M565.03,-374.72C559.09,-369.29 553.27,-362.74 549.56,-355.5 545.95,-348.46 543.99,-340.21 542.97,-332.39"/>
<polygon fill="black" stroke="black" points="546.47,-332.28 542.19,-322.59 539.5,-332.84 546.47,-332.28"/>
<text xml:space="preserve" text-anchor="middle" x="579.56" y="-342.2" font-family="Times,serif" font-size="14.00">neighbours</text>
</g>
<!-- &quot;Netherlands&quot; -->
<g id="node6" class="node">
<title>&quot;Netherlands&quot;</title>
<text xml:space="preserve" text-anchor="middle" x="782.56" y="-297.95" font-family="Times,serif" font-size="14.00">&quot;Netherlands&quot;</text>
</g>
<!-- Netherlands&#45;&gt;&quot;Netherlands&quot; -->
<g id="edge4" class="edge">
<title>Netherlands&#45;&gt;&quot;Netherlands&quot;</title>
<path fill="none" stroke="black" d="M618.48,-376.41C649.78,-362.6 697.91,-341.36 733.96,-325.45"/>
<polygon fill="black" stroke="black" points="735.13,-328.76 742.87,-321.52 732.3,-322.35 735.13,-328.76"/>
<text xml:space="preserve" text-anchor="middle" x="727.61" y="-342.2" font-family="Times,serif" font-size="14.00">hasName</text>
</g>
<!-- Amsterdam -->
<g id="node11" class="node">
<title>Amsterdam</title>
<ellipse fill="lightblue" stroke="lightblue" cx="499.56" cy="-249" rx="54.93" ry="18"/>
<text xml:space="preserve" text-anchor="middle" x="499.56" y="-243.95" font-family="Times,serif" font-size="14.00">Amsterdam</text>
</g>
<!-- Netherlands&#45;&gt;Amsterdam -->
<g id="edge8" class="edge">
<title>Netherlands&#45;&gt;Amsterdam</title>
<path fill="none" stroke="black" d="M533.92,-385.29C514.88,-380.57 495.21,-371.77 483.56,-355.5 467.33,-332.85 475.69,-300.4 485.35,-277.49"/>
<polygon fill="black" stroke="black" points="488.5,-279.01 489.47,-268.46 482.13,-276.11 488.5,-279.01"/>
<text xml:space="preserve" text-anchor="middle" x="512.06" y="-342.2" font-family="Times,serif" font-size="14.00">hasCapital</text>
</g>
<!-- Belgium&#45;&gt;Country -->
<g id="edge23" class="edge">
<title>Belgium&#45;&gt;Country</title>
<path fill="none" stroke="black" stroke-dasharray="1,5" d="M549.09,-284.98C551.22,-279.29 553.55,-272.89 555.56,-267 560.35,-252.92 565.28,-237.13 569.26,-224.02"/>
<polygon fill="black" stroke="black" points="572.52,-225.34 572.05,-214.75 565.82,-223.32 572.52,-225.34"/>
<text xml:space="preserve" text-anchor="middle" x="578.39" y="-243.95" font-family="Times,serif" font-size="14.00">type</text>
</g>
<!-- Capital -->
<g id="node8" class="node">
<title>Capital</title>
<polygon fill="none" stroke="black" points="582.06,-124.5 527.06,-124.5 527.06,-88.5 582.06,-88.5 582.06,-124.5"/>
<text xml:space="preserve" text-anchor="middle" x="554.56" y="-101.45" font-family="Times,serif" font-size="14.00">Capital</text>
</g>
<!-- Madrid&#45;&gt;Capital -->
<g id="edge5" class="edge">
<title>Madrid&#45;&gt;Capital</title>
<path fill="none" stroke="black" stroke-dasharray="1,5" d="M33.06,-230.87C29.11,-214.92 26.49,-191.5 39.31,-177 70.84,-141.31 400.52,-117.23 515.37,-109.88"/>
<polygon fill="black" stroke="black" points="515.46,-113.38 525.22,-109.25 515.02,-106.39 515.46,-113.38"/>
<text xml:space="preserve" text-anchor="middle" x="50.93" y="-189.95" font-family="Times,serif" font-size="14.00">type</text>
</g>
<!-- City -->
<g id="node15" class="node">
<title>City</title>
<polygon fill="none" stroke="black" points="730.56,-36 676.56,-36 676.56,0 730.56,0 730.56,-36"/>
<text xml:space="preserve" text-anchor="middle" x="703.56" y="-12.95" font-family="Times,serif" font-size="14.00">City</text>
</g>
<!-- Capital&#45;&gt;City -->
<g id="edge25" class="edge">
<title>Capital&#45;&gt;City</title>
<path fill="none" stroke="black" d="M582.23,-89.43C605.93,-75.67 640.27,-55.74 666.37,-40.59"/>
<polygon fill="black" stroke="black" points="668.08,-43.64 674.97,-35.6 664.56,-37.59 668.08,-43.64"/>
<text xml:space="preserve" text-anchor="middle" x="673.53" y="-57.2" font-family="Times,serif" font-size="14.00">subClassOf</text>
</g>
<!-- Lisbon&#45;&gt;Capital -->
<g id="edge10" class="edge">
<title>Lisbon&#45;&gt;Capital</title>
<path fill="none" stroke="black" stroke-dasharray="1,5" d="M342.63,-183.57C386.06,-167.98 467.96,-138.58 516.24,-121.25"/>
<polygon fill="black" stroke="black" points="517.22,-124.62 525.45,-117.95 514.85,-118.03 517.22,-124.62"/>
<text xml:space="preserve" text-anchor="middle" x="467.27" y="-145.7" font-family="Times,serif" font-size="14.00">type</text>
</g>
<!-- containsCity -->
<g id="node10" class="node">
<title>containsCity</title>
<ellipse fill="none" stroke="black" cx="904.56" cy="-303" rx="57.49" ry="18"/>
<text xml:space="preserve" text-anchor="middle" x="904.56" y="-297.95" font-family="Times,serif" font-size="14.00">containsCity</text>
</g>
<!-- containsCity&#45;&gt;Country -->
<g id="edge7" class="edge">
<title>containsCity&#45;&gt;Country</title>
<path fill="none" stroke="black" d="M876.87,-286.95C867.63,-281.3 857.59,-274.43 849.31,-267 834.06,-253.33 838.56,-240.76 820.56,-231 784.05,-211.21 675.31,-220.97 634.56,-213 629.52,-212.01 624.29,-210.77 619.13,-209.41"/>
<polygon fill="black" stroke="black" points="620.08,-206.04 609.51,-206.69 618.18,-212.78 620.08,-206.04"/>
<text xml:space="preserve" text-anchor="middle" x="869.93" y="-243.95" font-family="Times,serif" font-size="14.00">domain</text>
</g>
<!-- containsCity&#45;&gt;City -->
<g id="edge16" class="edge">
<title>containsCity&#45;&gt;City</title>
<path fill="none" stroke="black" d="M903.66,-284.55C902.32,-269.66 898.96,-248.01 890.56,-231 851.68,-152.29 775.83,-80.07 733.66,-43.7"/>
<polygon fill="black" stroke="black" points="735.99,-41.08 726.1,-37.26 731.45,-46.41 735.99,-41.08"/>
<text xml:space="preserve" text-anchor="middle" x="859.32" y="-145.7" font-family="Times,serif" font-size="14.00">range</text>
</g>
<!-- Amsterdam&#45;&gt;Capital -->
<g id="edge12" class="edge">
<title>Amsterdam&#45;&gt;Capital</title>
<path fill="none" stroke="black" stroke-dasharray="1,5" d="M501.93,-230.66C504.28,-216.02 508.52,-194.68 515.31,-177 520.93,-162.34 529.26,-147.05 536.8,-134.55"/>
<polygon fill="black" stroke="black" points="539.77,-136.41 542.08,-126.07 533.82,-132.71 539.77,-136.41"/>
<text xml:space="preserve" text-anchor="middle" x="526.93" y="-189.95" font-family="Times,serif" font-size="14.00">type</text>
</g>
<!-- Italy -->
<g id="node12" class="node">
<title>Italy</title>
<ellipse fill="lightblue" stroke="lightblue" cx="690.56" cy="-303" rx="27.81" ry="18"/>
<text xml:space="preserve" text-anchor="middle" x="690.56" y="-297.95" font-family="Times,serif" font-size="14.00">Italy</text>
</g>
<!-- Italy&#45;&gt;Country -->
<g id="edge13" class="edge">
<title>Italy&#45;&gt;Country</title>
<path fill="none" stroke="black" stroke-dasharray="1,5" d="M674.89,-287.83C668.32,-281.64 660.72,-274.17 654.31,-267 640.84,-251.94 641.1,-245.02 626.56,-231 622.67,-227.25 618.35,-223.59 613.95,-220.14"/>
<polygon fill="black" stroke="black" points="616.19,-217.44 606.08,-214.27 612,-223.05 616.19,-217.44"/>
<text xml:space="preserve" text-anchor="middle" x="665.93" y="-243.95" font-family="Times,serif" font-size="14.00">type</text>
</g>
<!-- &quot;Italy&quot; -->
<g id="node16" class="node">
<title>&quot;Italy&quot;</title>
<text xml:space="preserve" text-anchor="middle" x="774.56" y="-189.95" font-family="Times,serif" font-size="14.00">&quot;Italy&quot;</text>
</g>
<!-- Italy&#45;&gt;&quot;Italy&quot; -->
<g id="edge17" class="edge">
<title>Italy&#45;&gt;&quot;Italy&quot;</title>
<path fill="none" stroke="black" d="M713.17,-292.11C724.47,-286.21 737.61,-277.75 746.56,-267 756.88,-254.59 763.72,-237.9 768.06,-223.82"/>
<polygon fill="black" stroke="black" points="771.42,-224.79 770.72,-214.22 764.68,-222.92 771.42,-224.79"/>
<text xml:space="preserve" text-anchor="middle" x="790.62" y="-243.95" font-family="Times,serif" font-size="14.00">hasName</text>
</g>
<!-- Rome -->
<g id="node17" class="node">
<title>Rome</title>
<ellipse fill="lightblue" stroke="lightblue" cx="676.56" cy="-195" rx="33.44" ry="18"/>
<text xml:space="preserve" text-anchor="middle" x="676.56" y="-189.95" font-family="Times,serif" font-size="14.00">Rome</text>
</g>
<!-- Italy&#45;&gt;Rome -->
<g id="edge21" class="edge">
<title>Italy&#45;&gt;Rome</title>
<path fill="none" stroke="black" d="M688.31,-284.97C686.16,-268.69 682.87,-243.82 680.32,-224.52"/>
<polygon fill="black" stroke="black" points="683.82,-224.3 679.04,-214.84 676.88,-225.21 683.82,-224.3"/>
<text xml:space="preserve" text-anchor="middle" x="714.13" y="-243.95" font-family="Times,serif" font-size="14.00">hasCapital</text>
</g>
<!-- Germany -->
<g id="node13" class="node">
<title>Germany</title>
<ellipse fill="lightblue" stroke="lightblue" cx="385.56" cy="-391.5" rx="45.72" ry="18"/>
<text xml:space="preserve" text-anchor="middle" x="385.56" y="-386.45" font-family="Times,serif" font-size="14.00">Germany</text>
</g>
<!-- EuropeanCountry -->
<g id="node14" class="node">
<title>EuropeanCountry</title>
<polygon fill="none" stroke="black" points="441.56,-321 329.56,-321 329.56,-285 441.56,-285 441.56,-321"/>
<text xml:space="preserve" text-anchor="middle" x="385.56" y="-297.95" font-family="Times,serif" font-size="14.00">EuropeanCountry</text>
</g>
<!-- Germany&#45;&gt;EuropeanCountry -->
<g id="edge15" class="edge">
<title>Germany&#45;&gt;EuropeanCountry</title>
<path fill="none" stroke="black" stroke-dasharray="1,5" d="M385.56,-373.41C385.56,-361.76 385.56,-346.05 385.56,-332.52"/>
<polygon fill="black" stroke="black" points="389.06,-332.86 385.56,-322.86 382.06,-332.86 389.06,-332.86"/>
<text xml:space="preserve" text-anchor="middle" x="397.18" y="-342.2" font-family="Times,serif" font-size="14.00">type</text>
</g>
<!-- EuropeanCountry&#45;&gt;Country -->
<g id="edge20" class="edge">
<title>EuropeanCountry&#45;&gt;Country</title>
<path fill="none" stroke="black" d="M375.46,-284.63C367.71,-268.74 360.32,-245.56 373.31,-231 396.72,-204.75 496.31,-221.04 530.56,-213 532.41,-212.56 534.3,-212.08 536.2,-211.55"/>
<polygon fill="black" stroke="black" points="537.06,-214.95 545.58,-208.65 534.99,-208.26 537.06,-214.95"/>
<text xml:space="preserve" text-anchor="middle" x="404.43" y="-243.95" font-family="Times,serif" font-size="14.00">subClassOf</text>
</g>
<!-- Rome&#45;&gt;Capital -->
<g id="edge18" class="edge">
<title>Rome&#45;&gt;Capital</title>
<path fill="none" stroke="black" stroke-dasharray="1,5" d="M656.95,-180.1C638.53,-167.04 610.57,-147.21 588.52,-131.58"/>
<polygon fill="black" stroke="black" points="590.58,-128.75 580.4,-125.82 586.53,-134.46 590.58,-128.75"/>
<text xml:space="preserve" text-anchor="middle" x="638.11" y="-145.7" font-family="Times,serif" font-size="14.00">type</text>
</g>
<!-- hasCapital -->
<g id="node19" class="node">
<title>hasCapital</title>
<ellipse fill="none" stroke="black" cx="946.56" cy="-391.5" rx="49.82" ry="18"/>
<text xml:space="preserve" text-anchor="middle" x="946.56" y="-386.45" font-family="Times,serif" font-size="14.00">hasCapital</text>
</g>
<!-- hasCapital&#45;&gt;Capital -->
<g id="edge22" class="edge">
<title>hasCapital&#45;&gt;Capital</title>
<path fill="none" stroke="black" d="M966.93,-374.7C972.41,-369.27 977.63,-362.72 980.56,-355.5 987.32,-338.83 978.41,-304.76 970.56,-285 942.72,-214.94 942.72,-182.07 878.56,-142.5 831.76,-113.64 669.27,-108.43 593.73,-107.59"/>
<polygon fill="black" stroke="black" points="593.93,-104.09 583.9,-107.5 593.87,-111.09 593.93,-104.09"/>
<text xml:space="preserve" text-anchor="middle" x="978.49" y="-243.95" font-family="Times,serif" font-size="14.00">range</text>
</g>
<!-- hasCapital&#45;&gt;containsCity -->
<g id="edge26" class="edge">
<title>hasCapital&#45;&gt;containsCity</title>
<path fill="none" stroke="black" d="M919.45,-375.94C912.12,-370.56 905.11,-363.73 901.06,-355.5 897.59,-348.45 896.9,-340.19 897.5,-332.38"/>
<polygon fill="black" stroke="black" points="900.95,-332.98 898.98,-322.57 894.03,-331.94 900.95,-332.98"/>
<text xml:space="preserve" text-anchor="middle" x="940.81" y="-342.2" font-family="Times,serif" font-size="14.00">subPropertyOf</text>
</g>
</g>
</svg>
