<?xml version="1.0" encoding="UTF-8" standalone="no"?>
<!DOCTYPE svg PUBLIC "-//W3C//DTD SVG 1.1//EN"
 "http://www.w3.org/Graphics/SVG/1.1/DTD/svg11.dtd">
<!-- Generated by graphviz version 13.1.2 (20250808.2320)
 -->
<!-- Pages: 1 -->
<svg width="952pt" height="276pt"
 viewBox="0.00 0.00 952.00 276.00" xmlns="http://www.w3.org/2000/svg" xmlns:xlink="http://www.w3.org/1999/xlink">
<g id="graph0" class="graph" transform="scale(0.694444 0.694444) rotate(0) translate(4 394)">
<polygon fill="white" stroke="none" points="-4,4 -4,-394 1367.56,-394 1367.56,4 -4,4"/>
<!-- Portugal -->
<g id="node1" class="node">
<title>Portugal</title>
<ellipse fill="lightblue" stroke="lightblue" cx="222.56" cy="-283.5" rx="42.14" ry="18"/>
<text xml:space="preserve" text-anchor="middle" x="222.56" y="-278.45" font-family="Times,serif" font-size="14.00">Portugal</text>
</g>
<!-- Country -->
<g id="node2" class="node">
<title>Country</title>
<polygon fill="none" stroke="black" points="1064.68,-124.5 1004.43,-124.5 1004.43,-88.5 1064.68,-88.5 1064.68,-124.5"/>
<text xml:space="preserve" text-anchor="middle" x="1034.56" y="-101.45" font-family="Times,serif" font-size="14.00">Country</text>
</g>
<!-- Portugal&#45;&gt;Country -->
<g id="edge1" class="edge">
<title>Portugal&#45;&gt;Country</title>
<path fill="none" stroke="black" stroke-dasharray="1,5" d="M254.85,-271.46C261.04,-269.42 267.49,-267.35 273.56,-265.5 356.94,-240.04 393.55,-266.28 462.56,-213 491.25,-190.85 472.52,-161.23 503.56,-142.5 544.4,-117.85 885.1,-129.43 932.56,-124.5 952.57,-122.42 974.62,-118.9 993.07,-115.6"/>
<polygon fill="black" stroke="black" points="993.64,-119.06 1002.85,-113.81 992.38,-112.17 993.64,-119.06"/>
<text xml:space="preserve" text-anchor="middle" x="493.62" y="-189.95" font-family="Times,serif" font-size="14.00">type</text>
</g>
<!-- Lisbon -->
<g id="node10" class="node">
<title>Lisbon</title>
<ellipse fill="lightblue" stroke="lightblue" cx="222.56" cy="-195" rx="36.51" ry="18"/>
<text xml:space="preserve" text-anchor="middle" x="222.56" y="-189.95" font-family="Times,serif" font-size="14.00">Lisbon</text>
</g>
<!-- Portugal&#45;&gt;Lisbon -->
<g id="edge7" class="edge">
<title>Portugal&#45;&gt;Lisbon</title>
<path fill="none" stroke="black" d="M222.56,-265.41C222.56,-253.76 222.56,-238.05 222.56,-224.52"/>
<polygon fill="black" stroke="black" points="226.06,-224.86 222.56,-214.86 219.06,-224.86 226.06,-224.86"/>
<text xml:space="preserve" text-anchor="middle" x="251.06" y="-234.2" font-family="Times,serif" font-size="14.00">hasCapital</text>
</g>
<!-- &quot;Portugal&quot; -->
<g id="node20" class="node">
<title>&quot;Portugal&quot;</title>
<text xml:space="preserve" text-anchor="middle" x="131.56" y="-189.95" font-family="Times,serif" font-size="14.00">&quot;Portugal&quot;</text>
</g>
<!-- Portugal&#45;&gt;&quot;Portugal&quot; -->
<g id="edge29" class="edge">
<title>Portugal&#45;&gt;&quot;Portugal&quot;</title>
<path fill="none" stroke="black" d="M196.68,-268.91C186.93,-263.08 176.14,-255.72 167.56,-247.5 159.85,-240.12 152.79,-230.87 146.99,-222.25"/>
<polygon fill="black" stroke="black" points="149.95,-220.39 141.62,-213.85 144.06,-224.16 149.95,-220.39"/>
<text xml:space="preserve" text-anchor="middle" x="193.06" y="-234.2" font-family="Times,serif" font-size="14.00">hasName</text>
</g>
<!-- Spain -->
<g id="node3" class="node">
<title>Spain</title>
<ellipse fill="lightblue" stroke="lightblue" cx="377.56" cy="-372" rx="31.9" ry="18"/>
<text xml:space="preserve" text-anchor="middle" x="377.56" y="-366.95" font-family="Times,serif" font-size="14.00">Spain</text>
</g>
<!-- Spain&#45;&gt;Portugal -->
<g id="edge2" class="edge">
<title>Spain&#45;&gt;Portugal</title>
<path fill="none" stroke="black" d="M355.35,-358.61C329.81,-344.36 287.57,-320.78 257.59,-304.05"/>
<polygon fill="black" stroke="black" points="259.31,-301 248.87,-299.18 255.9,-307.11 259.31,-301"/>
<text xml:space="preserve" text-anchor="middle" x="343.94" y="-322.7" font-family="Times,serif" font-size="14.00">neighbours</text>
</g>
<!-- Spain&#45;&gt;Country -->
<g id="edge10" class="edge">
<title>Spain&#45;&gt;Country</title>
<path fill="none" stroke="black" stroke-dasharray="1,5" d="M409.61,-370.52C530.27,-368.3 956.51,-356.63 1078.56,-301.5 1135.82,-275.63 1176,-231.97 1145.56,-177 1130.67,-150.11 1100.55,-132.24 1075.44,-121.36"/>
<polygon fill="black" stroke="black" points="1077.02,-118.23 1066.44,-117.69 1074.38,-124.71 1077.02,-118.23"/>
<text xml:space="preserve" text-anchor="middle" x="1165.04" y="-234.2" font-family="Times,serif" font-size="14.00">type</text>
</g>
<!-- Madrid -->
<g id="node4" class="node">
<title>Madrid</title>
<ellipse fill="lightblue" stroke="lightblue" cx="38.56" cy="-195" rx="38.56" ry="18"/>
<text xml:space="preserve" text-anchor="middle" x="38.56" y="-189.95" font-family="Times,serif" font-size="14.00">Madrid</text>
</g>
<!-- Spain&#45;&gt;Madrid -->
<g id="edge15" class="edge">
<title>Spain&#45;&gt;Madrid</title>
<path fill="none" stroke="black" d="M345.55,-369.42C292.97,-365.41 186.93,-351.28 114.56,-301.5 85.72,-281.67 63.93,-247.16 51.24,-223.02"/>
<polygon fill="black" stroke="black" points="54.52,-221.77 46.89,-214.42 48.28,-224.93 54.52,-221.77"/>
<text xml:space="preserve" text-anchor="middle" x="143.06" y="-278.45" font-family="Times,serif" font-size="14.00">hasCapital</text>
</g>
<!-- &quot;Spain&quot; -->
<g id="node18" class="node">
<title>&quot;Spain&quot;</title>
<text xml:space="preserve" text-anchor="middle" x="429.56" y="-278.45" font-family="Times,serif" font-size="14.00">&quot;Spain&quot;</text>
</g>
<!-- Spain&#45;&gt;&quot;Spain&quot; -->
<g id="edge24" class="edge">
<title>Spain&#45;&gt;&quot;Spain&quot;</title>
<path fill="none" stroke="black" d="M387.34,-354.73C394.72,-342.44 405.02,-325.32 413.59,-311.06"/>
<polygon fill="black" stroke="black" points="416.53,-312.96 418.68,-302.58 410.53,-309.35 416.53,-312.96"/>
<text xml:space="preserve" text-anchor="middle" x="433.71" y="-322.7" font-family="Times,serif" font-size="14.00">hasName</text>
</g>
<!-- City -->
<g id="node5" class="node">
<title>City</title>
<polygon fill="none" stroke="black" points="389.56,-36 335.56,-36 335.56,0 389.56,0 389.56,-36"/>
<text xml:space="preserve" text-anchor="middle" x="362.56" y="-12.95" font-family="Times,serif" font-size="14.00">City</text>
</g>
<!-- Madrid&#45;&gt;City -->
<g id="edge3" class="edge">
<title>Madrid&#45;&gt;City</title>
<path fill="none" stroke="black" stroke-dasharray="1,5" d="M55.61,-178.63C80.46,-156.75 128.63,-116.21 174.31,-88.5 205.76,-69.42 215.19,-67.14 249.56,-54 274.06,-44.63 302.24,-35.9 324.33,-29.5"/>
<polygon fill="black" stroke="black" points="325.17,-32.9 333.82,-26.79 323.25,-26.17 325.17,-32.9"/>
<text xml:space="preserve" text-anchor="middle" x="185.93" y="-101.45" font-family="Times,serif" font-size="14.00">type</text>
</g>
<!-- Capital -->
<g id="node9" class="node">
<title>Capital</title>
<polygon fill="none" stroke="black" points="326.06,-124.5 271.06,-124.5 271.06,-88.5 326.06,-88.5 326.06,-124.5"/>
<text xml:space="preserve" text-anchor="middle" x="298.56" y="-101.45" font-family="Times,serif" font-size="14.00">Capital</text>
</g>
<!-- Madrid&#45;&gt;Capital -->
<g id="edge6" class="edge">
<title>Madrid&#45;&gt;Capital</title>
<path fill="none" stroke="black" stroke-dasharray="1,5" d="M68.34,-183.07C74.04,-181.02 79.98,-178.92 85.56,-177 146.34,-156.1 217.39,-133.22 260.14,-119.63"/>
<polygon fill="black" stroke="black" points="260.98,-123.04 269.45,-116.68 258.86,-116.37 260.98,-123.04"/>
<text xml:space="preserve" text-anchor="middle" x="196.15" y="-145.7" font-family="Times,serif" font-size="14.00">type</text>
</g>
<!-- Netherlands -->
<g id="node6" class="node">
<title>Netherlands</title>
<ellipse fill="lightblue" stroke="lightblue" cx="725.56" cy="-283.5" rx="55.45" ry="18"/>
<text xml:space="preserve" text-anchor="middle" x="725.56" y="-278.45" font-family="Times,serif" font-size="14.00">Netherlands</text>
</g>
<!-- Netherlands&#45;&gt;Country -->
<g id="edge18" class="edge">
<title>Netherlands&#45;&gt;Country</title>
<path fill="none" stroke="black" stroke-dasharray="1,5" d="M711.01,-265.68C693.37,-243.18 668.55,-203.11 690.31,-177 731.71,-127.32 913.64,-139.45 976.56,-124.5 981.89,-123.23 987.46,-121.77 992.96,-120.26"/>
<polygon fill="black" stroke="black" points="993.9,-123.63 1002.56,-117.51 991.98,-116.89 993.9,-123.63"/>
<text xml:space="preserve" text-anchor="middle" x="701.93" y="-189.95" font-family="Times,serif" font-size="14.00">type</text>
</g>
<!-- Belgium -->
<g id="node7" class="node">
<title>Belgium</title>
<ellipse fill="lightblue" stroke="lightblue" cx="877.56" cy="-195" rx="43.16" ry="18"/>
<text xml:space="preserve" text-anchor="middle" x="877.56" y="-189.95" font-family="Times,serif" font-size="14.00">Belgium</text>
</g>
<!-- Netherlands&#45;&gt;Belgium -->
<g id="edge4" class="edge">
<title>Netherlands&#45;&gt;Belgium</title>
<path fill="none" stroke="black" d="M760.65,-269.31C775.21,-263.34 792.05,-255.76 806.56,-247.5 821.57,-238.95 837.22,-227.86 850,-218.17"/>
<polygon fill="black" stroke="black" points="851.77,-221.22 857.54,-212.33 847.49,-215.68 851.77,-221.22"/>
<text xml:space="preserve" text-anchor="middle" x="860.95" y="-234.2" font-family="Times,serif" font-size="14.00">neighbours</text>
</g>
<!-- &quot;Netherlands&quot; -->
<g id="node8" class="node">
<title>&quot;Netherlands&quot;</title>
<text xml:space="preserve" text-anchor="middle" x="769.56" y="-189.95" font-family="Times,serif" font-size="14.00">&quot;Netherlands&quot;</text>
</g>
<!-- Netherlands&#45;&gt;&quot;Netherlands&quot; -->
<g id="edge5" class="edge">
<title>Netherlands&#45;&gt;&quot;Netherlands&quot;</title>
<path fill="none" stroke="black" d="M734.25,-265.41C740.44,-253.25 748.87,-236.66 755.95,-222.76"/>
<polygon fill="black" stroke="black" points="758.93,-224.61 760.34,-214.11 752.69,-221.44 758.93,-224.61"/>
<text xml:space="preserve" text-anchor="middle" x="777" y="-234.2" font-family="Times,serif" font-size="14.00">hasName</text>
</g>
<!-- Amsterdam -->
<g id="node12" class="node">
<title>Amsterdam</title>
<ellipse fill="lightblue" stroke="lightblue" cx="398.56" cy="-195" rx="54.93" ry="18"/>
<text xml:space="preserve" text-anchor="middle" x="398.56" y="-189.95" font-family="Times,serif" font-size="14.00">Amsterdam</text>
</g>
<!-- Netherlands&#45;&gt;Amsterdam -->
<g id="edge9" class="edge">
<title>Netherlands&#45;&gt;Amsterdam</title>
<path fill="none" stroke="black" d="M682.7,-271.74C662.64,-265.9 638.78,-257.75 618.56,-247.5 607.34,-241.81 607.23,-235.68 595.56,-231 542.23,-209.64 523.96,-223.89 467.56,-213 462.31,-211.99 456.85,-210.83 451.42,-209.61"/>
<polygon fill="black" stroke="black" points="452.38,-206.23 441.84,-207.37 450.78,-213.05 452.38,-206.23"/>
<text xml:space="preserve" text-anchor="middle" x="647.06" y="-234.2" font-family="Times,serif" font-size="14.00">hasCapital</text>
</g>
<!-- Belgium&#45;&gt;Country -->
<g id="edge28" class="edge">
<title>Belgium&#45;&gt;Country</title>
<path fill="none" stroke="black" stroke-dasharray="1,5" d="M902.78,-180.1C927.44,-166.52 965.37,-145.62 994.22,-129.72"/>
<polygon fill="black" stroke="black" points="995.61,-132.95 1002.68,-125.06 992.24,-126.82 995.61,-132.95"/>
<text xml:space="preserve" text-anchor="middle" x="981.74" y="-145.7" font-family="Times,serif" font-size="14.00">type</text>
</g>
<!-- Capital&#45;&gt;City -->
<g id="edge30" class="edge">
<title>Capital&#45;&gt;City</title>
<path fill="none" stroke="black" d="M301.86,-88.07C304.49,-77.48 308.98,-64.11 316.31,-54 319.25,-49.95 322.79,-46.15 326.59,-42.66"/>
<polygon fill="black" stroke="black" points="328.55,-45.57 334.02,-36.5 324.09,-40.18 328.55,-45.57"/>
<text xml:space="preserve" text-anchor="middle" x="347.43" y="-57.2" font-family="Times,serif" font-size="14.00">subClassOf</text>
</g>
<!-- Lisbon&#45;&gt;City -->
<g id="edge11" class="edge">
<title>Lisbon&#45;&gt;City</title>
<path fill="none" stroke="black" stroke-dasharray="1,5" d="M205.49,-178.87C200.31,-173.21 195.28,-166.36 192.56,-159 190.01,-152.12 189.99,-149.37 192.56,-142.5 214.12,-84.64 281.49,-49.3 324.66,-32"/>
<polygon fill="black" stroke="black" points="325.85,-35.29 333.93,-28.43 323.34,-28.76 325.85,-35.29"/>
<text xml:space="preserve" text-anchor="middle" x="241.05" y="-101.45" font-family="Times,serif" font-size="14.00">type</text>
</g>
<!-- Lisbon&#45;&gt;Capital -->
<g id="edge12" class="edge">
<title>Lisbon&#45;&gt;Capital</title>
<path fill="none" stroke="black" stroke-dasharray="1,5" d="M232.54,-177.46C239.23,-166.96 248.57,-153.36 258.31,-142.5 261.44,-139.01 264.9,-135.53 268.45,-132.2"/>
<polygon fill="black" stroke="black" points="270.53,-135.03 275.62,-125.75 265.85,-129.83 270.53,-135.03"/>
<text xml:space="preserve" text-anchor="middle" x="269.93" y="-145.7" font-family="Times,serif" font-size="14.00">type</text>
</g>
<!-- containsCity -->
<g id="node11" class="node">
<title>containsCity</title>
<ellipse fill="none" stroke="black" cx="588.56" cy="-195" rx="57.49" ry="18"/>
<text xml:space="preserve" text-anchor="middle" x="588.56" y="-189.95" font-family="Times,serif" font-size="14.00">containsCity</text>
</g>
<!-- containsCity&#45;&gt;Country -->
<g id="edge8" class="edge">
<title>containsCity&#45;&gt;Country</title>
<path fill="none" stroke="black" d="M596.11,-176.9C602.35,-165 612.45,-149.98 626.31,-142.5 660.6,-124 938.14,-131.02 976.56,-124.5 981.96,-123.58 987.58,-122.33 993.09,-120.92"/>
<polygon fill="black" stroke="black" points="994,-124.3 1002.71,-118.26 992.14,-117.55 994,-124.3"/>
<text xml:space="preserve" text-anchor="middle" x="646.93" y="-145.7" font-family="Times,serif" font-size="14.00">domain</text>
</g>
<!-- containsCity&#45;&gt;City -->
<g id="edge21" class="edge">
<title>containsCity&#45;&gt;City</title>
<path fill="none" stroke="black" d="M562.45,-178.66C552.87,-172.77 542.05,-165.83 532.56,-159 480.28,-121.38 423.2,-72.65 390.26,-43.72"/>
<polygon fill="black" stroke="black" points="392.98,-41.46 383.17,-37.47 388.35,-46.71 392.98,-41.46"/>
<text xml:space="preserve" text-anchor="middle" x="499.37" y="-101.45" font-family="Times,serif" font-size="14.00">range</text>
</g>
<!-- Amsterdam&#45;&gt;City -->
<g id="edge13" class="edge">
<title>Amsterdam&#45;&gt;City</title>
<path fill="none" stroke="black" stroke-dasharray="1,5" d="M397.69,-176.86C395.99,-150.13 391.2,-97.11 378.56,-54 377.88,-51.7 377.08,-49.35 376.2,-47.02"/>
<polygon fill="black" stroke="black" points="379.43,-45.66 372.3,-37.82 372.98,-48.39 379.43,-45.66"/>
<text xml:space="preserve" text-anchor="middle" x="404.08" y="-101.45" font-family="Times,serif" font-size="14.00">type</text>
</g>
<!-- Amsterdam&#45;&gt;Capital -->
<g id="edge16" class="edge">
<title>Amsterdam&#45;&gt;Capital</title>
<path fill="none" stroke="black" stroke-dasharray="1,5" d="M378.12,-177.85C370.84,-172 362.64,-165.29 355.31,-159 345.51,-150.6 334.99,-141.17 325.7,-132.7"/>
<polygon fill="black" stroke="black" points="328.08,-130.14 318.35,-125.96 323.35,-135.3 328.08,-130.14"/>
<text xml:space="preserve" text-anchor="middle" x="366.93" y="-145.7" font-family="Times,serif" font-size="14.00">type</text>
</g>
<!-- Germany -->
<g id="node13" class="node">
<title>Germany</title>
<ellipse fill="lightblue" stroke="lightblue" cx="1240.56" cy="-283.5" rx="45.72" ry="18"/>
<text xml:space="preserve" text-anchor="middle" x="1240.56" y="-278.45" font-family="Times,serif" font-size="14.00">Germany</text>
</g>
<!-- Germany&#45;&gt;Country -->
<g id="edge14" class="edge">
<title>Germany&#45;&gt;Country</title>
<path fill="none" stroke="black" stroke-dasharray="1,5" d="M1235.06,-265.27C1224.01,-231.65 1198.44,-159.12 1178.56,-142.5 1150.02,-118.65 1107.81,-110.58 1076.45,-108.07"/>
<polygon fill="black" stroke="black" points="1076.73,-104.58 1066.53,-107.45 1076.29,-111.56 1076.73,-104.58"/>
<text xml:space="preserve" text-anchor="middle" x="1227.64" y="-189.95" font-family="Times,serif" font-size="14.00">type</text>
</g>
<!-- EuropeanCountry -->
<g id="node16" class="node">
<title>EuropeanCountry</title>
<polygon fill="none" stroke="black" points="1363.56,-213 1251.56,-213 1251.56,-177 1363.56,-177 1363.56,-213"/>
<text xml:space="preserve" text-anchor="middle" x="1307.56" y="-189.95" font-family="Times,serif" font-size="14.00">EuropeanCountry</text>
</g>
<!-- Germany&#45;&gt;EuropeanCountry -->
<g id="edge20" class="edge">
<title>Germany&#45;&gt;EuropeanCountry</title>
<path fill="none" stroke="black" stroke-dasharray="1,5" d="M1253.47,-265.82C1263.08,-253.42 1276.38,-236.25 1287.38,-222.05"/>
<polygon fill="black" stroke="black" points="1289.94,-224.46 1293.29,-214.42 1284.4,-220.18 1289.94,-224.46"/>
<text xml:space="preserve" text-anchor="middle" x="1291.68" y="-234.2" font-family="Times,serif" font-size="14.00">type</text>
</g>
<!-- Italy -->
<g id="node14" class="node">
<title>Italy</title>
<ellipse fill="lightblue" stroke="lightblue" cx="1041.56" cy="-283.5" rx="27.81" ry="18"/>
<text xml:space="preserve" text-anchor="middle" x="1041.56" y="-278.45" font-family="Times,serif" font-size="14.00">Italy</text>
</g>
<!-- Italy&#45;&gt;Country -->
<g id="edge17" class="edge">
<title>Italy&#45;&gt;Country</title>
<path fill="none" stroke="black" stroke-dasharray="1,5" d="M1040.86,-265.08C1039.65,-234.94 1037.17,-172.8 1035.7,-136.2"/>
<polygon fill="black" stroke="black" points="1039.21,-136.21 1035.31,-126.36 1032.21,-136.49 1039.21,-136.21"/>
<text xml:space="preserve" text-anchor="middle" x="1050.38" y="-189.95" font-family="Times,serif" font-size="14.00">type</text>
</g>
<!-- Rome -->
<g id="node15" class="node">
<title>Rome</title>
<ellipse fill="lightblue" stroke="lightblue" cx="972.56" cy="-195" rx="33.44" ry="18"/>
<text xml:space="preserve" text-anchor="middle" x="972.56" y="-189.95" font-family="Times,serif" font-size="14.00">Rome</text>
</g>
<!-- Italy&#45;&gt;Rome -->
<g id="edge26" class="edge">
<title>Italy&#45;&gt;Rome</title>
<path fill="none" stroke="black" d="M1015.18,-276.88C999.28,-271.99 980.28,-263.14 970.56,-247.5 966.3,-240.66 965.29,-232.26 965.76,-224.25"/>
<polygon fill="black" stroke="black" points="969.2,-224.89 967.11,-214.5 962.27,-223.93 969.2,-224.89"/>
<text xml:space="preserve" text-anchor="middle" x="999.06" y="-234.2" font-family="Times,serif" font-size="14.00">hasCapital</text>
</g>
<!-- &quot;Italy&quot; -->
<g id="node17" class="node">
<title>&quot;Italy&quot;</title>
<text xml:space="preserve" text-anchor="middle" x="1109.56" y="-189.95" font-family="Times,serif" font-size="14.00">&quot;Italy&quot;</text>
</g>
<!-- Italy&#45;&gt;&quot;Italy&quot; -->
<g id="edge22" class="edge">
<title>Italy&#45;&gt;&quot;Italy&quot;</title>
<path fill="none" stroke="black" d="M1053.71,-267.04C1063.65,-254.4 1077.89,-236.28 1089.51,-221.5"/>
<polygon fill="black" stroke="black" points="1091.98,-224.02 1095.41,-214 1086.48,-219.7 1091.98,-224.02"/>
<text xml:space="preserve" text-anchor="middle" x="1107.15" y="-234.2" font-family="Times,serif" font-size="14.00">hasName</text>
</g>
<!-- Rome&#45;&gt;City -->
<g id="edge19" class="edge">
<title>Rome&#45;&gt;City</title>
<path fill="none" stroke="black" stroke-dasharray="1,5" d="M964.59,-177.06C958.31,-165.56 948.45,-150.95 935.56,-142.5 761.31,-28.33 499.33,-17.78 401.36,-18.14"/>
<polygon fill="black" stroke="black" points="401.45,-14.64 391.48,-18.22 401.51,-21.64 401.45,-14.64"/>
<text xml:space="preserve" text-anchor="middle" x="917.36" y="-101.45" font-family="Times,serif" font-size="14.00">type</text>
</g>
<!-- Rome&#45;&gt;Capital -->
<g id="edge23" class="edge">
<title>Rome&#45;&gt;Capital</title>
<path fill="none" stroke="black" stroke-dasharray="1,5" d="M947.52,-182.53C941.73,-180.32 935.52,-178.3 929.56,-177 778.11,-144.08 735.41,-175.54 581.31,-159 486.94,-148.87 463.63,-143.08 370.56,-124.5 359.83,-122.36 348.27,-119.76 337.61,-117.24"/>
<polygon fill="black" stroke="black" points="338.51,-113.86 327.97,-114.93 336.87,-120.67 338.51,-113.86"/>
<text xml:space="preserve" text-anchor="middle" x="592.93" y="-145.7" font-family="Times,serif" font-size="14.00">type</text>
</g>
<!-- EuropeanCountry&#45;&gt;Country -->
<g id="edge25" class="edge">
<title>EuropeanCountry&#45;&gt;Country</title>
<path fill="none" stroke="black" d="M1284.82,-176.64C1268.8,-165.24 1246.39,-150.94 1224.56,-142.5 1175.68,-123.61 1115.71,-114.74 1076.38,-110.7"/>
<polygon fill="black" stroke="black" points="1076.92,-107.23 1066.63,-109.76 1076.25,-114.2 1076.92,-107.23"/>
<text xml:space="preserve" text-anchor="middle" x="1286.89" y="-145.7" font-family="Times,serif" font-size="14.00">subClassOf</text>
</g>
<!-- hasCapital -->
<g id="node19" class="node">
<title>hasCapital</title>
<ellipse fill="none" stroke="black" cx="332.56" cy="-283.5" rx="49.82" ry="18"/>
<text xml:space="preserve" text-anchor="middle" x="332.56" y="-278.45" font-family="Times,serif" font-size="14.00">hasCapital</text>
</g>
<!-- hasCapital&#45;&gt;Capital -->
<g id="edge27" class="edge">
<title>hasCapital&#45;&gt;Capital</title>
<path fill="none" stroke="black" d="M323.78,-265.3C317.22,-251.53 308.7,-231.53 304.56,-213 298.84,-187.44 297.64,-157.57 297.69,-136.16"/>
<polygon fill="black" stroke="black" points="301.18,-136.47 297.81,-126.43 294.18,-136.38 301.18,-136.47"/>
<text xml:space="preserve" text-anchor="middle" x="319.56" y="-189.95" font-family="Times,serif" font-size="14.00">range</text>
</g>
<!-- hasCapital&#45;&gt;containsCity -->
<g id="edge31" class="edge">
<title>hasCapital&#45;&gt;containsCity</title>
<path fill="none" stroke="black" d="M369.86,-271.12C377.02,-269.11 384.5,-267.14 391.56,-265.5 435.97,-255.17 450.46,-265.01 492.56,-247.5 504.34,-242.6 505.05,-237.46 516.06,-231 525.54,-225.43 536.04,-219.98 546.04,-215.1"/>
<polygon fill="black" stroke="black" points="547.33,-218.36 554.85,-210.89 544.31,-212.05 547.33,-218.36"/>
<text xml:space="preserve" text-anchor="middle" x="555.81" y="-234.2" font-family="Times,serif" font-size="14.00">subPropertyOf</text>
</g>
</g>
</svg>
