<?xml version="1.0" encoding="UTF-8" standalone="no"?>
<!DOCTYPE svg PUBLIC "-//W3C//DTD SVG 1.1//EN"
 "http://www.w3.org/Graphics/SVG/1.1/DTD/svg11.dtd">
<!-- Generated by graphviz version 13.1.2 (20250808.2320)
 -->
<!-- Pages: 1 -->
<svg width="710pt" height="290pt"
 viewBox="0.00 0.00 710.00 290.00" xmlns="http://www.w3.org/2000/svg" xmlns:xlink="http://www.w3.org/1999/xlink">
<g id="graph0" class="graph" transform="scale(0.694444 0.694444) rotate(0) translate(4 413.5)">
<polygon fill="white" stroke="none" points="-4,4 -4,-413.5 1018.77,-413.5 1018.77,4 -4,4"/>
<!-- Portugal -->
<g id="node1" class="node">
<title>Portugal</title>
<ellipse fill="none" stroke="black" cx="103.56" cy="-303" rx="42.14" ry="18"/>
<text xml:space="preserve" text-anchor="middle" x="103.56" y="-297.95" font-family="Times,serif" font-size="14.00">Portugal</text>
</g>
<!-- Portugal&#45;&gt;Portugal -->
<g id="edge24" class="edge">
<title>Portugal&#45;&gt;Portugal</title>
<path fill="none" stroke="black" d="M141.44,-311.3C153.83,-311.25 163.7,-308.49 163.7,-303 163.7,-299.31 159.24,-296.85 152.56,-295.63"/>
<polygon fill="black" stroke="black" points="153.2,-292.17 142.94,-294.83 152.62,-299.14 153.2,-292.17"/>
<text xml:space="preserve" text-anchor="middle" x="189.2" y="-297.95" font-family="Times,serif" font-size="14.00">hasName</text>
</g>
<!-- Country -->
<g id="node2" class="node">
<title>Country</title>
<ellipse fill="none" stroke="black" cx="510.56" cy="-195" rx="41.12" ry="18"/>
<text xml:space="preserve" text-anchor="middle" x="510.56" y="-189.95" font-family="Times,serif" font-size="14.00">Country</text>
</g>
<!-- Portugal&#45;&gt;Country -->
<g id="edge1" class="edge">
<title>Portugal&#45;&gt;Country</title>
<path fill="none" stroke="black" d="M137.57,-291.91C153.19,-286.21 171.36,-277.99 185.56,-267 201.53,-254.63 195.56,-240.65 213.31,-231 256.25,-207.65 384.21,-220.22 432.56,-213 442.92,-211.45 453.98,-209.33 464.4,-207.12"/>
<polygon fill="black" stroke="black" points="464.91,-210.59 473.93,-205.02 463.41,-203.75 464.91,-210.59"/>
<text xml:space="preserve" text-anchor="middle" x="224.93" y="-243.95" font-family="Times,serif" font-size="14.00">type</text>
</g>
<!-- Lisbon -->
<g id="node8" class="node">
<title>Lisbon</title>
<ellipse fill="none" stroke="black" cx="249.56" cy="-195" rx="36.51" ry="18"/>
<text xml:space="preserve" text-anchor="middle" x="249.56" y="-189.95" font-family="Times,serif" font-size="14.00">Lisbon</text>
</g>
<!-- Portugal&#45;&gt;Lisbon -->
<g id="edge6" class="edge">
<title>Portugal&#45;&gt;Lisbon</title>
<path fill="none" stroke="black" d="M105.19,-284.68C107.62,-268.6 113.64,-245.09 128.56,-231 148.25,-212.4 177.22,-203.6 201.87,-199.48"/>
<polygon fill="black" stroke="black" points="202.31,-202.95 211.71,-198.07 201.31,-196.02 202.31,-202.95"/>
<text xml:space="preserve" text-anchor="middle" x="157.06" y="-243.95" font-family="Times,serif" font-size="14.00">hasCapital</text>
</g>
<!-- Spain -->
<g id="node3" class="node">
<title>Spain</title>
<ellipse fill="none" stroke="black" cx="113.56" cy="-391.5" rx="31.9" ry="18"/>
<text xml:space="preserve" text-anchor="middle" x="113.56" y="-386.45" font-family="Times,serif" font-size="14.00">Spain</text>
</g>
<!-- Spain&#45;&gt;Portugal -->
<g id="edge2" class="edge">
<title>Spain&#45;&gt;Portugal</title>
<path fill="none" stroke="black" d="M111.58,-373.41C110.23,-361.76 108.42,-346.05 106.85,-332.52"/>
<polygon fill="black" stroke="black" points="110.36,-332.39 105.74,-322.85 103.41,-333.19 110.36,-332.39"/>
<text xml:space="preserve" text-anchor="middle" x="139.45" y="-342.2" font-family="Times,serif" font-size="14.00">neighbours</text>
</g>
<!-- Spain&#45;&gt;Country -->
<g id="edge9" class="edge">
<title>Spain&#45;&gt;Country</title>
<path fill="none" stroke="black" d="M135.74,-378.09C147.16,-371.57 161.24,-363.33 173.56,-355.5 196.34,-341.02 202.84,-338.32 223.56,-321 240.85,-306.54 242.39,-299.9 259.31,-285 288.86,-258.97 293.51,-246.85 329.56,-231 372.1,-212.3 386.95,-221.95 432.56,-213 442.54,-211.04 453.2,-208.81 463.35,-206.62"/>
<polygon fill="black" stroke="black" points="464,-210.06 473.03,-204.51 462.51,-203.22 464,-210.06"/>
<text xml:space="preserve" text-anchor="middle" x="270.93" y="-297.95" font-family="Times,serif" font-size="14.00">type</text>
</g>
<!-- Spain&#45;&gt;Spain -->
<g id="edge19" class="edge">
<title>Spain&#45;&gt;Spain</title>
<path fill="none" stroke="black" d="M142.52,-399.76C153.93,-400.17 163.46,-397.42 163.46,-391.5 163.46,-387.71 159.55,-385.22 153.74,-384.02"/>
<polygon fill="black" stroke="black" points="154.25,-380.55 144.03,-383.35 153.77,-387.53 154.25,-380.55"/>
<text xml:space="preserve" text-anchor="middle" x="188.96" y="-386.45" font-family="Times,serif" font-size="14.00">hasName</text>
</g>
<!-- Madrid -->
<g id="node6" class="node">
<title>Madrid</title>
<ellipse fill="none" stroke="black" cx="38.56" cy="-249" rx="38.56" ry="18"/>
<text xml:space="preserve" text-anchor="middle" x="38.56" y="-243.95" font-family="Times,serif" font-size="14.00">Madrid</text>
</g>
<!-- Spain&#45;&gt;Madrid -->
<g id="edge11" class="edge">
<title>Spain&#45;&gt;Madrid</title>
<path fill="none" stroke="black" d="M85.29,-382.89C71.25,-377.59 55.44,-368.98 46.56,-355.5 31.65,-332.88 31.27,-301.3 33.62,-278.6"/>
<polygon fill="black" stroke="black" points="37.07,-279.19 34.89,-268.82 30.13,-278.29 37.07,-279.19"/>
<text xml:space="preserve" text-anchor="middle" x="75.06" y="-342.2" font-family="Times,serif" font-size="14.00">hasCapital</text>
</g>
<!-- Netherlands -->
<g id="node4" class="node">
<title>Netherlands</title>
<ellipse fill="none" stroke="black" cx="727.56" cy="-391.5" rx="55.45" ry="18"/>
<text xml:space="preserve" text-anchor="middle" x="727.56" y="-386.45" font-family="Times,serif" font-size="14.00">Netherlands</text>
</g>
<!-- Netherlands&#45;&gt;Country -->
<g id="edge14" class="edge">
<title>Netherlands&#45;&gt;Country</title>
<path fill="none" stroke="black" d="M726.15,-373.29C723.71,-351.42 717.26,-313.12 700.56,-285 682.57,-254.72 673.39,-248.02 642.56,-231 617.33,-217.08 586.32,-208.48 560.68,-203.3"/>
<polygon fill="black" stroke="black" points="561.66,-199.92 551.18,-201.5 560.36,-206.8 561.66,-199.92"/>
<text xml:space="preserve" text-anchor="middle" x="727.07" y="-297.95" font-family="Times,serif" font-size="14.00">type</text>
</g>
<!-- Netherlands&#45;&gt;Netherlands -->
<g id="edge4" class="edge">
<title>Netherlands&#45;&gt;Netherlands</title>
<path fill="none" stroke="black" d="M777.33,-399.74C790.77,-399.3 801,-396.56 801,-391.5 801,-388.02 796.17,-385.64 788.78,-384.35"/>
<polygon fill="black" stroke="black" points="789.12,-380.87 778.84,-383.41 788.46,-387.83 789.12,-380.87"/>
<text xml:space="preserve" text-anchor="middle" x="826.5" y="-386.45" font-family="Times,serif" font-size="14.00">hasName</text>
</g>
<!-- Belgium -->
<g id="node5" class="node">
<title>Belgium</title>
<ellipse fill="none" stroke="black" cx="648.56" cy="-303" rx="43.16" ry="18"/>
<text xml:space="preserve" text-anchor="middle" x="648.56" y="-297.95" font-family="Times,serif" font-size="14.00">Belgium</text>
</g>
<!-- Netherlands&#45;&gt;Belgium -->
<g id="edge3" class="edge">
<title>Netherlands&#45;&gt;Belgium</title>
<path fill="none" stroke="black" d="M685.78,-379.49C673.52,-374.21 661.32,-366.54 653.56,-355.5 648.9,-348.88 646.91,-340.55 646.27,-332.53"/>
<polygon fill="black" stroke="black" points="649.77,-332.71 646.18,-322.75 642.77,-332.78 649.77,-332.71"/>
<text xml:space="preserve" text-anchor="middle" x="683.56" y="-342.2" font-family="Times,serif" font-size="14.00">neighbours</text>
</g>
<!-- Amsterdam -->
<g id="node10" class="node">
<title>Amsterdam</title>
<ellipse fill="none" stroke="black" cx="775.56" cy="-249" rx="54.93" ry="18"/>
<text xml:space="preserve" text-anchor="middle" x="775.56" y="-243.95" font-family="Times,serif" font-size="14.00">Amsterdam</text>
</g>
<!-- Netherlands&#45;&gt;Amsterdam -->
<g id="edge8" class="edge">
<title>Netherlands&#45;&gt;Amsterdam</title>
<path fill="none" stroke="black" d="M734.46,-373.44C736.74,-367.74 739.28,-361.36 741.56,-355.5 747.49,-340.23 749.34,-336.53 754.56,-321 759.27,-306.96 764,-291.17 767.77,-278.05"/>
<polygon fill="black" stroke="black" points="771.04,-279.36 770.4,-268.78 764.3,-277.45 771.04,-279.36"/>
<text xml:space="preserve" text-anchor="middle" x="776.51" y="-342.2" font-family="Times,serif" font-size="14.00">hasCapital</text>
</g>
<!-- Belgium&#45;&gt;Country -->
<g id="edge23" class="edge">
<title>Belgium&#45;&gt;Country</title>
<path fill="none" stroke="black" d="M634.55,-285.67C620.82,-270.31 598.78,-247.3 576.56,-231 567.96,-224.69 558.07,-218.82 548.61,-213.76"/>
<polygon fill="black" stroke="black" points="550.43,-210.76 539.94,-209.3 547.23,-216.99 550.43,-210.76"/>
<text xml:space="preserve" text-anchor="middle" x="627.35" y="-243.95" font-family="Times,serif" font-size="14.00">type</text>
</g>
<!-- Capital -->
<g id="node7" class="node">
<title>Capital</title>
<ellipse fill="none" stroke="black" cx="536.56" cy="-106.5" rx="37.53" ry="18"/>
<text xml:space="preserve" text-anchor="middle" x="536.56" y="-101.45" font-family="Times,serif" font-size="14.00">Capital</text>
</g>
<!-- Madrid&#45;&gt;Capital -->
<g id="edge5" class="edge">
<title>Madrid&#45;&gt;Capital</title>
<path fill="none" stroke="black" d="M61.29,-234.17C88.61,-218.14 136.28,-192.01 180.31,-177 287.29,-140.53 419.25,-121.05 488.67,-112.65"/>
<polygon fill="black" stroke="black" points="489.04,-116.13 498.56,-111.48 488.22,-109.18 489.04,-116.13"/>
<text xml:space="preserve" text-anchor="middle" x="191.93" y="-189.95" font-family="Times,serif" font-size="14.00">type</text>
</g>
<!-- City -->
<g id="node14" class="node">
<title>City</title>
<ellipse fill="none" stroke="black" cx="749.56" cy="-18" rx="27" ry="18"/>
<text xml:space="preserve" text-anchor="middle" x="749.56" y="-12.95" font-family="Times,serif" font-size="14.00">City</text>
</g>
<!-- Capital&#45;&gt;City -->
<g id="edge25" class="edge">
<title>Capital&#45;&gt;City</title>
<path fill="none" stroke="black" d="M564.4,-94.19C603.53,-78.3 674.67,-49.41 716.45,-32.44"/>
<polygon fill="black" stroke="black" points="717.56,-35.77 725.5,-28.77 714.92,-29.29 717.56,-35.77"/>
<text xml:space="preserve" text-anchor="middle" x="693.26" y="-57.2" font-family="Times,serif" font-size="14.00">subClassOf</text>
</g>
<!-- Lisbon&#45;&gt;Capital -->
<g id="edge10" class="edge">
<title>Lisbon&#45;&gt;Capital</title>
<path fill="none" stroke="black" d="M280.27,-184.74C331.89,-169.18 436.12,-137.77 494.5,-120.17"/>
<polygon fill="black" stroke="black" points="495.18,-123.63 503.74,-117.39 493.16,-116.92 495.18,-123.63"/>
<text xml:space="preserve" text-anchor="middle" x="430.39" y="-145.7" font-family="Times,serif" font-size="14.00">type</text>
</g>
<!-- containsCity -->
<g id="node9" class="node">
<title>containsCity</title>
<ellipse fill="none" stroke="black" cx="938.56" cy="-303" rx="57.49" ry="18"/>
<text xml:space="preserve" text-anchor="middle" x="938.56" y="-297.95" font-family="Times,serif" font-size="14.00">containsCity</text>
</g>
<!-- containsCity&#45;&gt;Country -->
<g id="edge7" class="edge">
<title>containsCity&#45;&gt;Country</title>
<path fill="none" stroke="black" d="M922.71,-285.39C917.59,-279.73 912.02,-273.24 907.31,-267 895.91,-251.89 900.76,-240.79 884.56,-231 841.62,-205.06 709.48,-217.84 659.56,-213 626.76,-209.82 589.97,-205.63 561.16,-202.2"/>
<polygon fill="black" stroke="black" points="561.58,-198.73 551.24,-201.02 560.75,-205.68 561.58,-198.73"/>
<text xml:space="preserve" text-anchor="middle" x="927.93" y="-243.95" font-family="Times,serif" font-size="14.00">domain</text>
</g>
<!-- containsCity&#45;&gt;City -->
<g id="edge16" class="edge">
<title>containsCity&#45;&gt;City</title>
<path fill="none" stroke="black" d="M945.66,-284.81C950.66,-270.07 955.36,-248.52 948.56,-231 914.41,-143.11 824.14,-70.61 777.84,-37.83"/>
<polygon fill="black" stroke="black" points="779.84,-34.97 769.63,-32.13 775.85,-40.71 779.84,-34.97"/>
<text xml:space="preserve" text-anchor="middle" x="921.22" y="-145.7" font-family="Times,serif" font-size="14.00">range</text>
</g>
<!-- Amsterdam&#45;&gt;Capital -->
<g id="edge12" class="edge">
<title>Amsterdam&#45;&gt;Capital</title>
<path fill="none" stroke="black" d="M749.52,-232.7C705.79,-206.99 617.66,-155.18 569.61,-126.93"/>
<polygon fill="black" stroke="black" points="571.42,-123.94 561.03,-121.88 567.87,-129.97 571.42,-123.94"/>
<text xml:space="preserve" text-anchor="middle" x="726.73" y="-189.95" font-family="Times,serif" font-size="14.00">type</text>
</g>
<!-- Italy -->
<g id="node11" class="node">
<title>Italy</title>
<ellipse fill="none" stroke="black" cx="319.56" cy="-303" rx="27.81" ry="18"/>
<text xml:space="preserve" text-anchor="middle" x="319.56" y="-297.95" font-family="Times,serif" font-size="14.00">Italy</text>
</g>
<!-- Italy&#45;&gt;Country -->
<g id="edge13" class="edge">
<title>Italy&#45;&gt;Country</title>
<path fill="none" stroke="black" d="M344.24,-294.38C362.97,-288.15 389.08,-278.52 410.56,-267 436.52,-253.08 463.63,-233.46 483.06,-218.38"/>
<polygon fill="black" stroke="black" points="485.06,-221.26 490.76,-212.32 480.73,-215.76 485.06,-221.26"/>
<text xml:space="preserve" text-anchor="middle" x="475.58" y="-243.95" font-family="Times,serif" font-size="14.00">type</text>
</g>
<!-- Italy&#45;&gt;Italy -->
<g id="edge17" class="edge">
<title>Italy&#45;&gt;Italy</title>
<path fill="none" stroke="black" d="M344.53,-311.17C355.7,-311.95 365.36,-309.22 365.36,-303 365.36,-299.01 361.4,-296.46 355.61,-295.35"/>
<polygon fill="black" stroke="black" points="356.19,-291.87 346.04,-294.9 355.87,-298.87 356.19,-291.87"/>
<text xml:space="preserve" text-anchor="middle" x="390.86" y="-297.95" font-family="Times,serif" font-size="14.00">hasName</text>
</g>
<!-- Rome -->
<g id="node15" class="node">
<title>Rome</title>
<ellipse fill="none" stroke="black" cx="390.56" cy="-195" rx="33.44" ry="18"/>
<text xml:space="preserve" text-anchor="middle" x="390.56" y="-189.95" font-family="Times,serif" font-size="14.00">Rome</text>
</g>
<!-- Italy&#45;&gt;Rome -->
<g id="edge21" class="edge">
<title>Italy&#45;&gt;Rome</title>
<path fill="none" stroke="black" d="M325.66,-284.97C331.5,-269.96 341.24,-247.9 353.56,-231 356.77,-226.59 360.59,-222.27 364.53,-218.25"/>
<polygon fill="black" stroke="black" points="366.73,-220.99 371.55,-211.55 361.9,-215.93 366.73,-220.99"/>
<text xml:space="preserve" text-anchor="middle" x="382.06" y="-243.95" font-family="Times,serif" font-size="14.00">hasCapital</text>
</g>
<!-- Germany -->
<g id="node12" class="node">
<title>Germany</title>
<ellipse fill="none" stroke="black" cx="510.56" cy="-391.5" rx="45.72" ry="18"/>
<text xml:space="preserve" text-anchor="middle" x="510.56" y="-386.45" font-family="Times,serif" font-size="14.00">Germany</text>
</g>
<!-- EuropeanCountry -->
<g id="node13" class="node">
<title>EuropeanCountry</title>
<ellipse fill="none" stroke="black" cx="510.56" cy="-303" rx="76.43" ry="18"/>
<text xml:space="preserve" text-anchor="middle" x="510.56" y="-297.95" font-family="Times,serif" font-size="14.00">EuropeanCountry</text>
</g>
<!-- Germany&#45;&gt;EuropeanCountry -->
<g id="edge15" class="edge">
<title>Germany&#45;&gt;EuropeanCountry</title>
<path fill="none" stroke="black" d="M510.56,-373.41C510.56,-361.76 510.56,-346.05 510.56,-332.52"/>
<polygon fill="black" stroke="black" points="514.06,-332.86 510.56,-322.86 507.06,-332.86 514.06,-332.86"/>
<text xml:space="preserve" text-anchor="middle" x="522.18" y="-342.2" font-family="Times,serif" font-size="14.00">type</text>
</g>
<!-- EuropeanCountry&#45;&gt;Country -->
<g id="edge20" class="edge">
<title>EuropeanCountry&#45;&gt;Country</title>
<path fill="none" stroke="black" d="M510.56,-284.97C510.56,-268.76 510.56,-244.06 510.56,-224.79"/>
<polygon fill="black" stroke="black" points="514.06,-224.85 510.56,-214.85 507.06,-224.85 514.06,-224.85"/>
<text xml:space="preserve" text-anchor="middle" x="541.68" y="-243.95" font-family="Times,serif" font-size="14.00">subClassOf</text>
</g>
<!-- Rome&#45;&gt;Capital -->
<g id="edge18" class="edge">
<title>Rome&#45;&gt;Capital</title>
<path fill="none" stroke="black" d="M412.41,-181.05C436.64,-166.69 475.98,-143.39 503.87,-126.86"/>
<polygon fill="black" stroke="black" points="505.46,-129.99 512.28,-121.88 501.89,-123.97 505.46,-129.99"/>
<text xml:space="preserve" text-anchor="middle" x="488.26" y="-145.7" font-family="Times,serif" font-size="14.00">type</text>
</g>
<!-- hasCapital -->
<g id="node16" class="node">
<title>hasCapital</title>
<ellipse fill="none" stroke="black" cx="930.56" cy="-391.5" rx="49.82" ry="18"/>
<text xml:space="preserve" text-anchor="middle" x="930.56" y="-386.45" font-family="Times,serif" font-size="14.00">hasCapital</text>
</g>
<!-- hasCapital&#45;&gt;Capital -->
<g id="edge22" class="edge">
<title>hasCapital&#45;&gt;Capital</title>
<path fill="none" stroke="black" d="M914.66,-374.07C902.15,-360.57 884.86,-340.56 872.56,-321 860.85,-302.4 846.15,-247.43 831.56,-231 765.8,-157 648.55,-126.17 583.42,-114.27"/>
<polygon fill="black" stroke="black" points="584.22,-110.86 573.77,-112.59 583.02,-117.76 584.22,-110.86"/>
<text xml:space="preserve" text-anchor="middle" x="864.9" y="-243.95" font-family="Times,serif" font-size="14.00">range</text>
</g>
<!-- hasCapital&#45;&gt;containsCity -->
<g id="edge26" class="edge">
<title>hasCapital&#45;&gt;containsCity</title>
<path fill="none" stroke="black" d="M932.14,-373.41C933.21,-361.76 934.67,-346.05 935.92,-332.52"/>
<polygon fill="black" stroke="black" points="939.38,-333.14 936.81,-322.86 932.41,-332.49 939.38,-333.14"/>
<text xml:space="preserve" text-anchor="middle" x="975.02" y="-342.2" font-family="Times,serif" font-size="14.00">subPropertyOf</text>
</g>
</g>
</svg>
